<svg width="17" height="17" viewBox="0 0 17 17" fill="none" xmlns="http://www.w3.org/2000/svg">
<path fill-rule="evenodd" clip-rule="evenodd" d="M8.41895 16.7697C12.8372 16.7697 16.4189 13.188 16.4189 8.76971C16.4189 4.35144 12.8372 0.769714 8.41895 0.769714C4.00067 0.769714 0.418945 4.35144 0.418945 8.76971C0.418945 13.188 4.00067 16.7697 8.41895 16.7697ZM7.21901 9.81519H4.51901C3.66186 9.81519 3.27615 9.39278 3.27615 8.75916V8.61132C3.27615 7.99882 3.66186 7.57641 4.51901 7.57641H7.21901V4.85186C7.21901 4.00703 7.66901 3.62686 8.31186 3.62686H8.54758C9.16901 3.62686 9.61901 4.00703 9.61901 4.85186V7.57641H12.319C13.1976 7.57641 13.5619 7.99882 13.5619 8.61132V8.75916C13.5619 9.39278 13.1976 9.81519 12.319 9.81519H9.61901V12.6876C9.61901 13.5324 9.16901 13.9126 8.54758 13.9126H8.31186C7.66901 13.9126 7.21901 13.5324 7.21901 12.6876V9.81519Z" fill="white"/>
</svg>
